Coordinates
version=1
nRows=12
nColumns=24
inDegrees=yes

Units are S.I. units (second, meters, Newtons, ...)
Angles are in degrees.

endheader
time	pelvis_tilt	pelvis_list	pelvis_rotation	pelvis_tx	pelvis_ty	pelvis_tz	hip_flexion_r	hip_adduction_r	hip_rotation_r	knee_angle_r	ankle_angle_r	subtalar_angle_r	mtp_angle_r	hip_flexion_l	hip_adduction_l	hip_rotation_l	knee_angle_l	ankle_angle_l	subtalar_angle_l	mtp_angle_l	lumbar_extension	lumbar_bending	lumbar_rotation
      5.06000000	     67.69809650	     -2.69006944	      3.50856668	      0.65906171	      1.01603452	     -0.20759515	     -9.83423202	     -7.96570754	      4.01061547	    -51.94068587	    -13.92880694	     26.20357839	     66.25765800	    -12.01567531	    -16.77064363	      4.72866260	    -56.21372028	-31782329.45361519	-18469945.76577882	16912585.73399536	      0.00000000	      0.00000000	      0.00000000
      5.07000000	     67.79051874	     -2.74589124	      3.66825514	      0.65917337	      1.01674432	     -0.20826669	     -9.97558229	     -7.93375239	      3.99928368	    -52.15066558	    -13.99200963	     26.17247794	     66.43734927	    -12.15103961	    -16.48660109	      4.01457829	    -56.74076714	-32145161.08642285	-18709144.95084349	17191478.52203865	      0.00000000	      0.00000000	      0.00000000
      5.08000000	     67.86745708	     -2.75365005	      3.75179373	      0.65889454	      1.01739518	     -0.20813305	    -10.11244318	     -7.99085977	      4.04553555	    -52.34513747	    -14.05780643	     26.13689539	     66.60661053	    -12.36010339	    -16.29663103	      3.69654336	    -57.09868384	-32510074.20176783	-18950444.93571778	17473435.22003863	      0.00000000	      0.00000000	      0.00000000
      5.09000000	     67.89750275	     -2.71066488	      3.68637812	      0.65844937	      1.01722248	     -0.20723628	    -10.17777131	     -8.16978772	      4.18618606	    -52.50431228	    -14.12258174	     26.09536158	     66.75997482	    -12.61543473	    -16.26178676	      3.93144437	    -57.20355016	-32877065.11326462	-19193866.31594401	17758463.97575528	      0.00000000	      0.00000000	      0.00000000
      5.10000000	     67.86965996	     -2.61130080	      3.42540785	      0.65889362	      1.01690653	     -0.20699626	    -10.13333110	     -8.45021067	      4.40878254	    -52.61875144	    -14.18184053	     26.04895131	     66.89296261	    -12.84694073	    -16.38969036	      4.71910384	    -57.03334271	-33246129.46675936	-19439429.58474485	18046572.96788613	      0.00000000	      0.00000000	      0.00000000
      5.11000000	     67.75497336	     -2.47798846	      3.05064752	      0.65995725	      1.01707245	     -0.20798105	     -9.98821313	     -8.75192336	      4.65007828	    -52.69721849	    -14.23083751	     26.00148893	     67.00233480	    -12.98809410	    -16.57547186	      5.83940264	    -56.68544793	-33617262.24377043	-19687155.05013385	18337770.74234454	      0.00000000	      0.00000000	      0.00000000
      5.12000000	     67.54409622	     -2.37675434	      2.76945168	      0.65987018	      1.01761299	     -0.20871970	     -9.79608381	     -8.97719083	      4.82257482	    -52.76834748	    -14.26503219	     25.95799199	     67.08635740	    -12.96616348	    -16.63685531	      6.90813605	    -56.34279557	-33990457.78363174	-19937062.82744847	18632066.52998585	      0.00000000	      0.00000000	      0.00000000
      5.13000000	     67.32506638	     -2.35939655	      2.75099109	      0.65828780	      1.01798388	     -0.20816375	     -9.63144827	     -9.07785946	      4.85641912	    -52.87072548	    -14.28062175	     25.92220864	     67.14482933	    -12.66437067	    -16.47324997	      7.56799939	    -56.17455514	-34365709.83713944	-20189172.89241280	18929470.48558818	      0.00000000	      0.00000000	      0.00000000
      5.14000000	     67.23772451	     -2.40297088	      2.99293227	      0.65732332	      1.01773103	     -0.20736538	     -9.55030595	     -9.08634691	      4.73186326	    -53.03043184	    -14.27529708	     25.89518030	     67.17877213	    -11.99535894	    -16.17500779	      7.67218361	    -56.30075159	-34743011.64546396	-20443505.17163125	19229993.79130645	      0.00000000	      0.00000000	      0.00000000
      5.15000000	     67.30784695	     -2.42781983	      3.36720375	      0.65832866	      1.01712341	     -0.20744970	     -9.55756541	     -9.07986526	      4.48461481	    -53.23963328	    -14.24924741	     25.87592984	     67.19003028	    -11.06154460	    -15.94629926	      7.31669754	    -56.84339039	-35122356.01761149	-20700079.64879246	19533648.60029518	      0.00000000	      0.00000000	      0.00000000
      5.16000000	     67.38868300	     -2.36165351	      3.74263330	      0.65973721	      1.01672546	     -0.20824531	     -9.61142803	     -9.11324743	      4.18590278	    -53.45717924	    -14.20627408	     25.86341968	     67.18114482	    -10.17370877	    -15.93569268	      6.73192931	    -57.91605485	-35503735.39036343	-20958916.47069661	19840447.83869845	      0.00000000	      0.00000000	      0.00000000
      5.17000000	     67.33385278	     -2.20797894	      4.04844968	      0.65970778	      1.01650874	     -0.20889068	     -9.66629118	     -9.18338981	      3.91388053	    -53.63534655	    -14.15429183	     25.85785385	     67.15553056	     -9.62391555	    -16.11513222	      6.13660874	    -59.48007089	-35887141.87315292	-21220036.04210544	20150404.90567473	      0.00000000	      0.00000000	      0.00000000
